# xmcd CD database file
#
# Track frame offsets:
#	150
#	15767
#	30195
#	44805
#	58815
#	72900
#	87432
#	98860
#	116812
#	131080
#
# Disc length: 1940 seconds
#
# Revision: 4
# Processed by: cddbd v1.4PL0 Copyright (c) Steve Scherf et al.
# Submitted via: CDex 1.50
#
DISCID=8407920a
DTITLE=Collin Raye - In This Life
DYEAR=1992
DGENRE=Country
TTITLE0=What They Don't Know
TTITLE1=In This Life
TTITLE2=Big River
TTITLE3=Somebody Else's Moon
TTITLE4=You Can't Take It With You
TTITLE5=That Was A River
TTITLE6=I Want You Bad (And That Ain't Good)
TTITLE7=Latter Day Cowboy
TTITLE8=Many A Mile
TTITLE9=Let It Be Me
EXTD=YEAR: 1992
EXTT0=
EXTT1=
EXTT2=
EXTT3=
EXTT4=
EXTT5=
EXTT6=
EXTT7=
EXTT8=
EXTT9=
PLAYORDER=
